<svg version="1.1" id="Capa_1" xmlns="http://www.w3.org/2000/svg" width="18px" height="18px" x="0px" y="0px"
	 viewBox="0 0 381.361 381.361" style="enable-background:new 0 0 381.361 381.361;" >
<path id="XMLID_23_" d="M233.594,119.917V24.229H214.91V0h-48.459v24.229h-18.684v95.688
	c-35.138,20.67-55.826,67.891-55.826,105.126v156.318h197.478V225.043C289.419,187.808,268.731,140.587,233.594,119.917z
	 M175.681,242.742v37.613h-53.739v-37.613H175.681z M259.419,351.361H121.942v-41.006h83.739v-97.613h-82.832
	c4.306-30.112,23.527-60.355,45.794-69.833l9.125-3.884V54.229h25.826v84.796l9.125,3.884c25.314,10.774,46.7,48.387,46.7,82.134
	V351.361z"/>
</svg>
